:SAMPLES-PER-SECOND 30
:FULLY-SPECIFIED
:DEGREES
1259
root  -1.31869 38.438 -1.9581 -129.009 -88.3078 103.088
RightUpLeg  24.5298 -6.62702 -12.3016
RightLeg  28.3593 -4.08523 -2.62132
RightFoot  -22.1223 0.315742 4.93392
RightToes  -4.65663e-010 0 -3.6325e-017
Spine  -30.3608 1.18202 7.23885
Spine1  21.682 1.38636 -4.39305
HEad  -45.8836 6.59057 -12.4161
LeftShoulder1  5.52971 -7.01673 -45.7628
LeftArm  -6.89093 46.4546 -23.9595
LeftForeArm  16.9595 -9.98334 -5.33267
LeftHand  -0.244104 0.0205437 5.32207
RightShoulder  2.95737 4.16023 32.6295
RightArm  -12.6968 -46.0482 33.4185
RightForeArm  -6.44654 6.77997 6.13351
RightHand  -0.0367849 -5.18885 -10.4122
LeftUpLeg  26.626 9.49333 9.19082
LeftLeg  25.2097 4.16792 2.47438
LeftFoot  -22.3886 -0.461097 -6.1514
LeftToes  4.18335e-011 1.59304e-011 3.38507e-012
1260
root  -1.16121 38.5792 -2.00119 -135.198 -88.352 110.007
RightUpLeg  23.8302 -6.64622 -11.7719
RightLeg  27.4678 -4.31748 -2.66488
RightFoot  -21.4126 0.272021 4.73217
RightToes  -4.65663e-010 0 -3.6325e-017
Spine  -29.5909 1.32839 7.50191
Spine1  21.7101 1.66115 -4.80747
HEad  -45.0127 6.93827 -12.7175
LeftShoulder1  5.74841 -7.35586 -46.1051
LeftArm  -6.7573 44.611 -23.4551
LeftForeArm  17.4075 -9.34195 -5.43221
LeftHand  -0.244104 0.0205437 5.32207
RightShoulder  3.07731 4.39849 32.9848
RightArm  -12.6401 -44.7516 33.4089
RightForeArm  -5.42025 6.75525 6.1077
RightHand  -0.0461076 -5.07705 -10.241
LeftUpLeg  25.9515 9.55813 9.10003
LeftLeg  24.3391 4.39561 2.50548
LeftFoot  -21.6041 -0.410891 -6.01359
LeftToes  4.18335e-011 1.59304e-011 3.38507e-012
1261
root  -0.987518 38.7386 -2.04814 -135.513 -88.4958 111.049
RightUpLeg  23.2817 -6.88894 -11.3235
RightLeg  26.3257 -4.53295 -2.66554
RightFoot  -20.5724 0.220744 4.45939
RightToes  -4.65663e-010 0 -3.6325e-017
Spine  -28.5586 1.33591 7.60501
Spine1  21.3653 1.86128 -5.24645
HEad  -43.6985 7.50541 -12.8899
LeftShoulder1  5.90582 -7.6637 -46.0665
LeftArm  -6.42486 42.8246 -23.0252
LeftForeArm  18.1747 -9.09619 -5.57512
LeftHand  -0.244104 0.0205437 5.32207
RightShoulder  3.17749 4.60792 33.2129
RightArm  -12.6325 -43.4768 33.4785
RightForeArm  -4.01614 6.85156 6.05807
RightHand  -0.0601321 -4.90641 -10.1147
LeftUpLeg  25.2659 9.37159 8.90224
LeftLeg  23.3048 4.70711 2.55229
LeftFoot  -20.6796 -0.358723 -5.90658
LeftToes  4.18335e-011 1.59304e-011 3.38507e-012
1262
root  -0.790161 38.9044 -2.09911 -131.232 -88.6805 107.592
RightUpLeg  22.6591 -7.25406 -10.9238
RightLeg  25.0997 -4.71972 -2.63401
RightFoot  -19.6699 0.169975 4.16449
RightToes  -4.65663e-010 0 -3.6325e-017
Spine  -27.6016 1.18194 7.40348
Spine1  21.257 1.8886 -5.41988
HEad  -42.4092 8.12589 -13.1577
LeftShoulder1  6.01389 -7.87047 -46.0596
LeftArm  -6.02608 40.7899 -22.5969
LeftForeArm  18.9429 -9.37392 -5.7326
LeftHand  -0.244104 0.0205437 5.32207
RightShoulder  3.32108 4.87795 33.6638
RightArm  -12.4269 -41.8908 33.1406
RightForeArm  -2.78825 7.22367 6.05669
RightHand  -0.0825846 -4.6481 -10.2765
LeftUpLeg  24.4247 9.08221 8.62106
LeftLeg  22.2167 5.04618 2.59421
LeftFoot  -19.6893 -0.306515 -5.81309
LeftToes  4.18335e-011 1.59304e-011 3.38507e-012
1263
root  -0.558113 39.0796 -2.15353 -129.395 -88.8221 106.816
RightUpLeg  21.7096 -7.54092 -10.4166
RightLeg  23.8436 -4.918 -2.5977
RightFoot  -18.6891 0.124277 3.90709
RightToes  -4.65663e-010 0 -3.6325e-017
Spine  -26.9676 1.02699 7.05467
Spine1  21.7155 1.80995 -5.24783
HEad  -41.2612 8.75759 -13.6612
LeftShoulder1  6.13935 -8.00812 -46.4712
LeftArm  -5.5543 38.2937 -22.0828
LeftForeArm  19.4419 -10.0645 -5.87573
LeftHand  -0.244104 0.0205437 5.32207
RightShoulder  3.45456 5.09844 34.1963
RightArm  -11.8719 -39.7567 32.4762
RightForeArm  -1.59711 7.71148 6.14781
RightHand  -0.105663 -4.39581 -10.5069
LeftUpLeg  23.3193 9.01673 8.42209
LeftLeg  21.0851 5.25221 2.56172
LeftFoot  -18.6405 -0.244458 -5.57784
LeftToes  4.18335e-011 1.59304e-011 3.38507e-012
1264
root  -0.30198 39.2711 -2.20764 -131.517 -88.9698 110.182
RightUpLeg  20.5749 -7.86391 -9.84955
RightLeg  22.4342 -5.04378 -2.50491
RightFoot  -17.5623 0.0775808 3.61458
RightToes  -4.65663e-010 0 -3.6325e-017
Spine  -26.3305 1.0758 7.02131
Spine1  21.8252 1.93922 -5.38591
HEad  -39.4308 9.39166 -13.9288
LeftShoulder1  6.32695 -8.29523 -46.7388
LeftArm  -4.7118 35.987 -21.5083
LeftForeArm  19.813 -10.92 -6.0198
LeftHand  -0.244104 0.0205437 5.32207
RightShoulder  3.60411 5.34794 34.7472
RightArm  -11.1201 -37.8442 31.8135
RightForeArm  -0.283045 8.19092 6.27776
RightHand  -0.120017 -4.23787 -10.5776
LeftUpLeg  22.0516 9.13679 8.32481
LeftLeg  19.846 5.33246 2.45986
LeftFoot  -17.4961 -0.171142 -5.12705
LeftToes  4.18335e-011 1.59304e-011 3.38507e-012
1265
root  -0.0446721 39.4715 -2.25827 -130.285 -89.1661 110.213
RightUpLeg  19.5406 -8.46843 -9.42737
RightLeg  20.8272 -4.94654 -2.29443
RightFoot  -16.323 0.0286863 3.19831
RightToes  -4.65663e-010 0 -3.6325e-017
Spine  -25.604 1.13894 7.13839
Spine1  21.6822 2.15582 -5.81872
HEad  -37.0852 10.1077 -13.8592
LeftShoulder1  6.44169 -8.53467 -46.6411
LeftArm  -3.56721 33.7953 -21.0518
LeftForeArm  20.1561 -11.8747 -6.12918
LeftHand  -0.244104 0.0205437 5.32207
RightShoulder  3.79366 5.6569 35.4319
RightArm  -10.2245 -36.0349 31.123
RightForeArm  0.902664 8.63681 6.41986
RightHand  -0.132073 -4.1087 -10.6501
LeftUpLeg  20.8025 9.11997 8.15891
LeftLeg  18.4755 5.48301 2.36648
LeftFoot  -16.264 -0.101899 -4.63683
LeftToes  4.18335e-011 1.59304e-011 3.38507e-012
1266
root  0.207191 39.665 -2.30878 -120.691 -89.3597 101.847
RightUpLeg  18.622 -9.26793 -9.1641
RightLeg  19.1492 -4.6846 -2.0013
RightFoot  -15.0833 -0.0133956 2.71846
RightToes  -4.65663e-010 0 -3.6325e-017
Spine  -24.8912 1.06367 6.99315
Spine1  21.7129 2.22308 -6.01609
HEad  -34.7391 10.8341 -13.7639
LeftShoulder1  6.49887 -8.66533 -46.5496
LeftArm  -2.35982 31.52 -20.7205
LeftForeArm  20.2492 -12.9272 -6.13788
LeftHand  -0.244104 0.0205437 5.32207
RightShoulder  4.00811 6.00418 36.1612
RightArm  -9.25337 -34.0084 30.3526
RightForeArm  1.69583 9.03479 6.57161
RightHand  -0.154604 -3.89073 -10.9212
LeftUpLeg  19.6224 8.87006 7.86809
LeftLeg  17.0212 5.79922 2.28063
LeftFoot  -14.9904 -0.0476324 -4.31894
LeftToes  4.18335e-011 1.59304e-011 3.38507e-012
1267
root  0.464268 39.8463 -2.36448 -107.647 -89.5006 90.0318
RightUpLeg  17.6793 -9.89228 -8.85504
RightLeg  17.4788 -4.55032 -1.67204
RightFoot  -13.8633 -0.0437425 2.28169
RightToes  -4.65663e-010 0 -3.6325e-017
Spine  -24.1709 0.943911 6.58242
Spine1  21.8083 2.15017 -5.82213
HEad  -32.3243 11.4258 -13.7877
LeftShoulder1  6.62687 -8.86286 -46.7148
LeftArm  -1.25122 29.3313 -20.446
LeftForeArm  19.9556 -13.9615 -6.04839
LeftHand  -0.244104 0.0205437 5.32207
RightShoulder  4.19247 6.31584 36.6884
RightArm  -8.29809 -31.8481 29.6744
RightForeArm  2.20475 9.30196 6.72968
RightHand  -0.187963 -3.58192 -11.2907
LeftUpLeg  18.4675 8.60592 7.63253
LeftLeg  15.5346 6.14324 2.08095
LeftFoot  -13.6928 -0.00250199 -4.11865
LeftToes  4.18335e-011 1.59304e-011 3.38507e-012
1268
root  0.731267 40.0193 -2.42262 -98.0915 -89.6271 81.7123
RightUpLeg  16.7046 -10.2298 -8.44546
RightLeg  15.7742 -4.63322 -1.26256
RightFoot  -12.5883 -0.0649711 1.86001
RightToes  -4.65663e-010 0 -3.6325e-017
Spine  -23.3181 0.894542 6.27858
Spine1  21.6434 2.11365 -5.67756
HEad  -29.5438 11.8653 -13.7545
LeftShoulder1  6.80581 -9.15891 -46.8632
LeftArm  -0.327031 27.4289 -20.3119
LeftForeArm  19.5349 -14.8382 -5.91713
LeftHand  -0.244104 0.0205437 5.32207
RightShoulder  4.33156 6.55911 37.0285
RightArm  -7.41686 -29.7565 29.2305
RightForeArm  2.55699 9.42693 6.89892
RightHand  -0.222414 -3.27646 -11.6239
LeftUpLeg  17.3376 8.54246 7.59133
LeftLeg  14.0244 6.33025 1.71112
LeftFoot  -12.3604 0.0398915 -3.8246
LeftToes  4.18335e-011 1.59304e-011 3.38507e-012
